<?xml version="1.0" standalone="no"?><!DOCTYPE svg PUBLIC "-//W3C//DTD SVG 1.1//EN" "http://www.w3.org/Graphics/SVG/1.1/DTD/svg11.dtd"><svg t="1666790410004" class="icon" viewBox="0 0 1024 1024" version="1.1" xmlns="http://www.w3.org/2000/svg" p-id="2912" xmlns:xlink="http://www.w3.org/1999/xlink" width="200" height="200"><path d="M909.637 478.524c-15.444-189.946-167.065-345.049-356.655-364.38-99.805-10.176-193.011 16.474-267.901 67.887l18.467-68.842c5.725-21.337-6.933-43.274-28.27-48.998s-43.274 6.934-48.998 28.271l-41.455 154.536c-5.724 21.337 6.933 43.273 28.271 48.998l154.536 41.455c21.337 5.724 43.273-6.934 48.998-28.271 5.724-21.337-6.934-43.274-28.271-48.998l-54.194-14.538c58.917-39.301 131.457-59.686 208.999-52.061 147.885 14.543 268.327 132.461 285.589 280.053 23.02 196.82-133.879 363.973-327.45 358.219-135.107-4.017-252.98-96.111-294.938-224.602-17.513-53.632-18.92-105.027-9.92-152.849 3.188-16.946-4.238-34.086-19.172-42.707l-0.049-0.028c-23.737-13.705-54.358-0.164-59.404 26.777-7.724 41.233-9.128 84.686-2.965 129.403 25.571 185.535 181.03 330.336 367.878 343.176C727.656 927.857 929.6 724.049 909.637 478.524z" fill="#333333" p-id="2913"></path></svg>