<?xml version="1.0" standalone="no"?><!DOCTYPE svg PUBLIC "-//W3C//DTD SVG 1.1//EN" "http://www.w3.org/Graphics/SVG/1.1/DTD/svg11.dtd"><svg t="1656669220703" class="icon" viewBox="0 0 1024 1024" version="1.1" xmlns="http://www.w3.org/2000/svg" p-id="2529" xmlns:xlink="http://www.w3.org/1999/xlink" width="200" height="200"><defs><style type="text/css">@font-face { font-family: feedback-iconfont; src: url("//at.alicdn.com/t/font_1031158_u69w8yhxdu.woff2?t=1630033759944") format("woff2"), url("//at.alicdn.com/t/font_1031158_u69w8yhxdu.woff?t=1630033759944") format("woff"), url("//at.alicdn.com/t/font_1031158_u69w8yhxdu.ttf?t=1630033759944") format("truetype"); }
</style></defs><path d="M524.032 512m-409.6 0a409.6 409.6 0 1 0 819.2 0 409.6 409.6 0 1 0-819.2 0Z" fill="#A0DBF2" p-id="2530"></path><path d="M531.712 396.8m-140.8 0a140.8 140.8 0 1 0 281.6 0 140.8 140.8 0 1 0-281.6 0Z" fill="#E6F9FF" p-id="2531"></path><path d="M186.5728 744.2944a409.6 409.6 0 1 1 725.76-362.5984 409.6 409.6 0 0 0-725.6576 362.5984z" fill="#003B73" opacity=".2" p-id="2532"></path><path d="M549.6832 563.2a129.4336 129.4336 0 0 1-13.4144-0.7168A145.0496 145.0496 0 0 0 652.0832 409.6a177.7664 177.7664 0 0 0-11.8784-64.7168A128 128 0 0 1 549.6832 563.2zM230.912 796.3136a113.0496 113.0496 0 0 1-14.1312-53.9136c0-98.7136 137.8304-179.2 307.2-179.2 163.84 0 298.752 74.7008 306.8416 169.984a363.9296 363.9296 0 0 0-281.1904-118.8864c-145.6128 0-276.48 74.7008-318.6688 181.8112z" fill="#003B73" opacity=".2" p-id="2533"></path><path d="M512 102.4a409.6 409.6 0 1 0 409.6 409.6 409.6 409.6 0 0 0-409.6-409.6z m0 51.2a357.7344 357.7344 0 0 1 304.384 546.7648 355.3792 355.3792 0 0 0-233.984-162.9184 153.6 153.6 0 1 0-140.8512 0 354.0992 354.0992 0 0 0-233.984 162.816 357.6832 357.6832 0 0 1 304.4352-546.6112z m-102.4 248.1152a102.4 102.4 0 1 1 102.4 102.4 102.4 102.4 0 0 1-102.4-102.4z m102.4 468.6848a357.4272 357.4272 0 0 1-271.36-125.0816 306.5856 306.5856 0 0 1 543.1296 0A357.376 357.376 0 0 1 512 870.4z" fill="#003B73" p-id="2534"></path></svg>