<?xml version="1.0" standalone="no"?><!DOCTYPE svg PUBLIC "-//W3C//DTD SVG 1.1//EN" "http://www.w3.org/Graphics/SVG/1.1/DTD/svg11.dtd"><svg t="1657095280800" class="icon" viewBox="0 0 1095 1024" version="1.1" xmlns="http://www.w3.org/2000/svg" p-id="31869" xmlns:xlink="http://www.w3.org/1999/xlink" width="213.8671875" height="200"><defs><style type="text/css">@font-face { font-family: feedback-iconfont; src: url("//at.alicdn.com/t/font_1031158_u69w8yhxdu.woff2?t=1630033759944") format("woff2"), url("//at.alicdn.com/t/font_1031158_u69w8yhxdu.woff?t=1630033759944") format("woff"), url("//at.alicdn.com/t/font_1031158_u69w8yhxdu.ttf?t=1630033759944") format("truetype"); }
</style></defs><path d="M253.184 182.8352c0 20.48 46.08 103.0656 46.08 103.0656h505.1904s46.08-82.4832 46.08-103.0656v-20.48c0-22.7328-20.48-40.96-46.08-40.96h-505.344c-25.6 0-46.08 18.4832-46.08 41.216v20.48z" fill="#BBE2FF" p-id="31870"></path><path d="M1010.944 424.96c0-28.416-5.7344-45.4656-46.08-45.4656H896s-32.6144-92.8256-46.08-136.4992-68.608-68.0448-114.5344-68.0448H367.9744c-46.08 0-101.4784 24.576-114.8416 68.3008s-46.08 136.4992-46.08 136.4992H138.24c-40.192 0-46.08 17.0496-46.08 45.4656s87.7568 22.784 69.1712 68.2496-46.08 91.0336-46.08 136.4992v227.4816c0 29.8496 25.6 45.5168 68.9152 45.5168s68.9152-18.432 68.9152-45.4656v-45.5168h597.0944v45.5168c0 27.0848 25.6 45.5168 68.9152 45.5168S988.16 887.296 988.16 857.4976V629.76c0-45.4656-27.3408-90.9824-46.08-136.4992-18.6368-45.312 68.864-39.5776 68.864-68.3008z m-344.4224 227.5328a22.8864 22.8864 0 0 1-22.9888 22.784H459.8272a22.8864 22.8864 0 0 1-22.9376-22.784V629.76a22.8864 22.8864 0 0 1 22.9888-22.784h183.7056a22.8864 22.8864 0 0 1 22.9888 22.784z m143.9744-226.4064a39.6288 39.6288 0 0 1-39.8336 39.4752H332.8a39.6288 39.6288 0 0 1-39.8336-39.424v-19.7632C292.864 386.6624 332.8 307.712 332.8 307.712h437.9648s39.8336 78.8992 39.8336 98.6112z" fill="#0091EB" p-id="31871"></path><path d="M207.2576 652.7488a68.9152 68.9152 0 0 0 137.7792 2.6112v-2.6112a68.9152 68.9152 0 0 0-137.7792 0zM827.2384 584.4992a68.2496 68.2496 0 1 0-2.6112 136.4992h2.6112a68.2496 68.2496 0 0 0 0-136.4992z" fill="#FFB541" p-id="31872"></path></svg>